<svg width="38" height="38" viewBox="0 0 38 38" fill="none" xmlns="http://www.w3.org/2000/svg">
<g clip-path="url(#clip0_208_453)">
<path d="M19 4.08447C23.8605 4.08447 24.4361 4.10578 26.3476 4.19106C28.1241 4.26922 29.0834 4.56768 29.723 4.81639C30.5686 5.14326 31.1797 5.5412 31.8121 6.17363C32.4517 6.81318 32.8425 7.41719 33.1694 8.2628C33.4181 8.90234 33.7165 9.86876 33.7947 11.6382C33.88 13.5568 33.9013 14.1324 33.9013 18.9858C33.9013 23.8463 33.88 24.4219 33.7947 26.3334C33.7165 28.1099 33.4181 29.0692 33.1694 29.7088C32.8425 30.5544 32.4446 31.1655 31.8121 31.7979C31.1726 32.4375 30.5686 32.8283 29.723 33.1552C29.0834 33.4039 28.117 33.7023 26.3476 33.7805C24.429 33.8658 23.8534 33.8871 19 33.8871C14.1395 33.8871 13.5639 33.8658 11.6524 33.7805C9.87587 33.7023 8.91656 33.4039 8.27701 33.1552C7.4314 32.8283 6.82028 32.4304 6.18785 31.7979C5.5483 31.1584 5.15747 30.5544 4.8306 29.7088C4.58189 29.0692 4.28343 28.1028 4.20527 26.3334C4.12 24.4148 4.09868 23.8392 4.09868 18.9858C4.09868 14.1253 4.12 13.5497 4.20527 11.6382C4.28343 9.86166 4.58189 8.90234 4.8306 8.2628C5.15747 7.41719 5.55541 6.80607 6.18785 6.17363C6.82739 5.53409 7.4314 5.14326 8.27701 4.81639C8.91656 4.56768 9.88297 4.26922 11.6524 4.19106C13.5639 4.10578 14.1395 4.08447 19 4.08447ZM19 0.808594C14.0613 0.808594 13.4431 0.829912 11.5031 0.915184C9.57031 1.00046 8.24148 1.31312 7.09031 1.7608C5.88939 2.2298 4.87323 2.84802 3.86418 3.86418C2.84802 4.87323 2.2298 5.88939 1.7608 7.0832C1.31312 8.24148 1.00046 9.5632 0.915184 11.496C0.829912 13.4431 0.808594 14.0613 0.808594 19C0.808594 23.9387 0.829912 24.5569 0.915184 26.4968C1.00046 28.4297 1.31312 29.7585 1.7608 30.9097C2.2298 32.1106 2.84802 33.1267 3.86418 34.1358C4.87323 35.1449 5.88939 35.7702 7.0832 36.2321C8.24148 36.6798 9.5632 36.9924 11.496 37.0777C13.436 37.163 14.0542 37.1843 18.9929 37.1843C23.9316 37.1843 24.5498 37.163 26.4897 37.0777C28.4226 36.9924 29.7514 36.6798 30.9026 36.2321C32.0964 35.7702 33.1125 35.1449 34.1216 34.1358C35.1306 33.1267 35.756 32.1106 36.2179 30.9168C36.6655 29.7585 36.9782 28.4368 37.0635 26.5039C37.1487 24.564 37.1701 23.9458 37.1701 19.0071C37.1701 14.0684 37.1487 13.4502 37.0635 11.5103C36.9782 9.57742 36.6655 8.24859 36.2179 7.09742C35.7702 5.88939 35.152 4.87323 34.1358 3.86418C33.1267 2.85513 32.1106 2.2298 30.9168 1.76791C29.7585 1.32023 28.4368 1.00756 26.5039 0.92229C24.5569 0.829912 23.9387 0.808594 19 0.808594Z" fill="#9C9C9C"/>
<path d="M19.0007 9.65558C13.8417 9.65558 9.65625 13.841 9.65625 19C9.65625 24.159 13.8417 28.3444 19.0007 28.3444C24.1596 28.3444 28.3451 24.159 28.3451 19C28.3451 13.841 24.1596 9.65558 19.0007 9.65558ZM19.0007 25.0614C15.6537 25.0614 12.9392 22.3469 12.9392 19C12.9392 15.6531 15.6537 12.9386 19.0007 12.9386C22.3476 12.9386 25.0621 15.6531 25.0621 19C25.0621 22.3469 22.3476 25.0614 19.0007 25.0614Z" fill="#9C9C9C"/>
<path d="M30.8963 9.28598C30.8963 10.494 29.9157 11.4675 28.7147 11.4675C27.5067 11.4675 26.5332 10.4869 26.5332 9.28598C26.5332 8.07796 27.5138 7.10443 28.7147 7.10443C29.9157 7.10443 30.8963 8.08506 30.8963 9.28598Z" fill="#9C9C9C"/>
</g>
<defs>
<clipPath id="clip0_208_453">
<rect width="36.3828" height="36.3828" fill="white" transform="translate(0.808594 0.808594)"/>
</clipPath>
</defs>
</svg>
