<svg width="38" height="38" viewBox="0 0 38 38" fill="none" xmlns="http://www.w3.org/2000/svg">
<g clip-path="url(#clip0_208_450)">
<path d="M34.4982 0.808594H3.49467C2.00951 0.808594 0.808594 1.98109 0.808594 3.43071V34.5622C0.808594 36.0118 2.00951 37.1914 3.49467 37.1914H34.4982C35.9834 37.1914 37.1914 36.0118 37.1914 34.5693V3.43071C37.1914 1.98109 35.9834 0.808594 34.4982 0.808594ZM11.6026 31.8121H6.20206V14.445H11.6026V31.8121ZM8.90234 12.0787C7.16848 12.0787 5.76859 10.6788 5.76859 8.95209C5.76859 7.22532 7.16848 5.82544 8.90234 5.82544C10.6291 5.82544 12.029 7.22532 12.029 8.95209C12.029 10.6717 10.6291 12.0787 8.90234 12.0787ZM31.8121 31.8121H26.4187V23.3702C26.4187 21.3592 26.3831 18.7655 23.6118 18.7655C20.8049 18.7655 20.3786 20.9612 20.3786 23.2281V31.8121H14.9922V14.445H20.1654V16.8184H20.2364C20.9541 15.4541 22.7164 14.0116 25.3386 14.0116C30.8031 14.0116 31.8121 17.6072 31.8121 22.283V31.8121Z" fill="#9C9C9C"/>
</g>
<defs>
<clipPath id="clip0_208_450">
<rect width="36.3828" height="36.3828" fill="white" transform="translate(0.808594 0.808594)"/>
</clipPath>
</defs>
</svg>
